<?xml version="1.0" standalone="no"?>
<!DOCTYPE svg PUBLIC "-//W3C//DTD SVG 20010904//EN"
 "http://www.w3.org/TR/2001/REC-SVG-20010904/DTD/svg10.dtd">
<svg version="1.0" xmlns="http://www.w3.org/2000/svg"
 width="180.000000pt" height="180.000000pt" viewBox="0 0 180.000000 180.000000"
 preserveAspectRatio="xMidYMid meet">
<metadata>
Created by potrace 1.11, written by Peter Selinger 2001-2013
</metadata>
<g transform="translate(0.000000,180.000000) scale(0.100000,-0.100000)"
fill="#000000" stroke="none">
<path d="M0 900 l0 -900 900 0 900 0 0 900 0 900 -900 0 -900 0 0 -900z m300
660 c126 -10 188 -15 390 -30 200 -15 262 -19 395 -30 66 -5 123 -10 128 -10
4 0 7 -10 7 -21 0 -21 -2 -22 -110 -15 -60 3 -165 11 -232 16 -68 6 -238 19
-378 30 -363 28 -360 28 -360 51 0 22 1 22 160 9z m-87 -103 c3 -8 8 -40 12
-71 8 -60 24 -60 25 -1 1 57 10 75 41 75 15 0 30 -4 33 -8 3 -5 -6 -55 -20
-113 -17 -68 -27 -140 -29 -209 -3 -103 -3 -105 -27 -102 -46 5 -48 8 -48 95
0 71 -30 246 -56 330 -4 14 1 17 29 17 20 0 37 -6 40 -13z m288 -36 l29 -29 0
-171 0 -170 -26 -20 c-39 -31 -89 -28 -125 8 l-29 29 0 171 c0 158 2 173 20
191 32 32 94 27 131 -9z m137 -160 c3 -180 11 -223 38 -186 10 13 12 59 7 186
l-6 169 35 0 35 0 8 -183 c7 -203 3 -229 -47 -246 -42 -15 -85 -3 -113 31 -25
29 -25 32 -25 219 l0 190 33 -3 32 -3 3 -174z m219 147 c4 -7 20 -56 35 -108
l26 -95 1 103 1 102 35 0 35 0 2 -165 c4 -303 7 -270 -27 -270 -30 0 -30 1
-60 115 l-30 114 -3 -112 -3 -112 -34 0 -34 0 -3 216 c-2 119 -1 218 1 220 9
9 50 3 58 -8z m296 -17 c42 -16 67 -51 67 -93 0 -37 -1 -38 -35 -38 -30 0 -35
3 -35 24 0 29 -27 56 -35 34 -3 -8 -4 -75 -3 -149 3 -111 6 -134 18 -134 22 0
26 87 5 105 -30 25 -18 40 34 40 l48 0 7 -61 c13 -130 4 -191 -25 -162 -6 6
-31 8 -57 6 -42 -4 -50 -2 -74 24 -27 29 -28 29 -30 197 l-3 167 28 25 c30 26
52 29 90 15z m331 -103 c15 -24 0 -34 -28 -18 -36 19 -56 7 -56 -33 0 -53 17
-90 50 -109 17 -9 30 -24 30 -33 0 -24 -28 -30 -50 -10 -24 22 -70 13 -70 -14
0 -30 36 -54 83 -54 51 0 90 23 107 63 20 49 11 64 -45 70 -56 6 -75 15 -75
35 0 44 78 60 123 25 14 -11 39 -20 55 -20 39 0 51 -28 14 -32 -24 -3 -28 -8
-33 -49 -14 -98 -71 -136 -192 -130 -10 1 -29 12 -42 26 -33 32 -33 78 0 109
22 20 24 27 15 50 -17 45 -12 100 11 125 25 27 86 26 103 -1z m-999 -343 c99
-8 335 -26 525 -40 572 -42 625 -46 637 -50 6 -2 9 -13 6 -25 -5 -19 -11 -21
-52 -16 -25 3 -111 10 -191 16 -80 6 -284 21 -455 35 -483 39 -702 55 -730 55
-18 0 -25 5 -25 18 0 28 8 31 59 26 25 -2 127 -11 226 -19z m49 -121 c14 -5
16 -29 16 -164 0 -169 9 -221 35 -200 12 10 15 45 15 187 l0 174 33 -3 32 -3
3 -193 2 -192 -26 -26 c-22 -23 -32 -26 -66 -21 -26 3 -51 15 -67 31 -26 26
-26 28 -29 207 -2 100 -1 187 2 195 6 15 24 18 50 8z m232 -22 c6 -4 21 -45
33 -92 13 -47 27 -89 32 -94 5 -6 9 29 9 88 l0 97 33 -3 32 -3 3 -217 2 -218
-23 0 c-35 0 -44 15 -68 116 -13 52 -27 94 -31 94 -4 0 -8 -45 -8 -101 l0
-100 -32 3 -33 3 -3 218 -2 217 22 0 c13 0 28 -4 34 -8z m254 -24 c0 -7 2
-106 4 -220 l5 -208 -33 0 -33 0 -6 143 c-4 78 -7 177 -7 220 l0 77 35 0 c21
0 35 -5 35 -12z m189 -4 c29 -6 32 -10 29 -38 -2 -25 -7 -31 -28 -31 l-25 0 1
-183 0 -183 -35 3 -36 3 -5 185 c-5 184 -5 185 -28 188 -25 4 -37 24 -28 47 6
16 94 21 155 9z m209 -19 c6 -3 12 -18 12 -35 0 -29 -2 -30 -45 -30 -45 0 -45
0 -45 -36 0 -45 15 -74 40 -74 16 0 20 -7 20 -30 0 -25 -4 -30 -25 -30 -24 0
-25 -2 -25 -64 l0 -65 43 -8 c36 -7 42 -12 42 -33 0 -24 -3 -25 -65 -25 -107
0 -100 -16 -100 223 0 115 3 211 6 214 5 6 118 0 142 -7z m165 -16 c20 -5 44
-20 52 -32 19 -30 32 -309 16 -350 -15 -40 -68 -60 -129 -49 l-47 7 -3 218 -2
217 37 0 c21 0 55 -5 76 -11z m-957 -419 c105 -10 236 -21 554 -45 107 -8 249
-19 315 -25 66 -5 128 -10 138 -10 11 0 17 -8 17 -23 0 -23 0 -23 -102 -15
-57 4 -157 12 -223 18 -122 10 -287 24 -450 36 -411 31 -380 27 -383 52 -4 26
-4 26 134 12z"/>
<path d="M422 1233 c3 -124 5 -148 18 -148 13 0 15 23 15 145 0 131 -2 145
-18 148 -16 3 -17 -7 -15 -145z"/>
<path d="M1478 1193 c6 -2 18 -2 25 0 6 3 1 5 -13 5 -14 0 -19 -2 -12 -5z"/>
<path d="M1540 526 c0 -139 1 -146 20 -146 29 0 34 34 24 168 -8 99 -12 117
-26 120 -17 3 -18 -9 -18 -142z"/>
</g>
</svg>
